HIERARCHY
ROOT Hips
{
    OFFSET 0.000000 0.000000 0.000000
    CHANNELS 6 Xposition Yposition Zposition Zrotation Xrotation Yrotation
    JOINT Spine
    {
        OFFSET -0.000000 14.517291 0.000000
        CHANNELS 3 Zrotation Xrotation Yrotation
        JOINT Spine1
        {
            OFFSET -0.000000 37.558300 0.000000
            CHANNELS 3 Zrotation Xrotation Yrotation
            JOINT Neck
            {
                OFFSET -0.000000 37.404057 3.400369
                CHANNELS 3 Zrotation Xrotation Yrotation
                JOINT Head
                {
                    OFFSET -0.000000 24.785618 -3.540803
                    CHANNELS 3 Zrotation Xrotation Yrotation
                    End Site
                    {
                        OFFSET -0.000000 35.408028 0.000000
                    }
                }
            }
            JOINT LeftShoulder
            {
                OFFSET 6.992933 33.973492 -0.192664
                CHANNELS 3 Zrotation Xrotation Yrotation
                JOINT LeftArm
                {
                    OFFSET 21.527611 0.000000 0.000000
                    CHANNELS 3 Zrotation Xrotation Yrotation
                    JOINT LeftForeArm
                    {
                        OFFSET 56.353916 0.000000 0.000000
                        CHANNELS 3 Zrotation Xrotation Yrotation
                        JOINT LeftHand
                        {
                            OFFSET 47.774071 0.000000 0.000000
                            CHANNELS 3 Zrotation Xrotation Yrotation
                            End Site
                            {
                                OFFSET 26.556021 0.000000 0.000000
                            }
                        }
                    }
                }
            }
            JOINT RightShoulder
            {
                OFFSET -7.065357 33.973492 -0.192664
                CHANNELS 3 Zrotation Xrotation Yrotation
                JOINT RightArm
                {
                    OFFSET -21.527611 0.000000 0.000000
                    CHANNELS 3 Zrotation Xrotation Yrotation
                    JOINT RightForeArm
                    {
                        OFFSET -56.353916 0.000000 0.000000
                        CHANNELS 3 Zrotation Xrotation Yrotation
                        JOINT RightHand
                        {
                            OFFSET -47.774071 0.000000 0.000000
                            CHANNELS 3 Zrotation Xrotation Yrotation
                            End Site
                            {
                                OFFSET -26.556021 0.000000 0.000000
                            }
                        }
                    }
                }
            }
        }
    }
    JOINT LeftUpLeg
    {
        OFFSET 17.704014 0.000000 0.000000
        CHANNELS 3 Zrotation Xrotation Yrotation
        JOINT LeftLeg
        {
            OFFSET -0.000000 -81.181816 0.000000
            CHANNELS 3 Zrotation Xrotation Yrotation
            JOINT LeftFoot
            {
                OFFSET -0.000000 -62.821102 0.000000
                CHANNELS 3 Zrotation Xrotation Yrotation
                JOINT LeftToeBase
                {
                    OFFSET -0.000000 -11.507608 26.556021
                    CHANNELS 3 Zrotation Xrotation Yrotation
                    End Site
                    {
                        OFFSET -0.000000 0.000000 7.081605
                    }
                }
            }
        }
    }
    JOINT RightUpLeg
    {
        OFFSET -17.704014 0.000000 0.000000
        CHANNELS 3 Zrotation Xrotation Yrotation
        JOINT RightLeg
        {
            OFFSET -0.000000 -81.181816 0.000000
            CHANNELS 3 Zrotation Xrotation Yrotation
            JOINT RightFoot
            {
                OFFSET -0.000000 -62.821102 0.000000
                CHANNELS 3 Zrotation Xrotation Yrotation
                JOINT RightToeBase
                {
                    OFFSET -0.000000 -11.507608 26.556021
                    CHANNELS 3 Zrotation Xrotation Yrotation
                    End Site
                    {
                        OFFSET -0.000000 0.000000 7.081605
                    }
                }
            }
        }
    }
}
MOTION
Frames:    5
Frame Time:    0.008333
44.017574    164.092499    -120.021080    -4.131364    -2.079332    28.193619    0.987643    -2.880206    -0.462907    -8.991211    0.894756    -0.092510    10.493774    8.229985    -3.510451    8.348371    -7.812342    -2.691375    10.754519    -2.769885    -12.843611    -23.360109    -26.237385    -34.792278    -16.181595    -33.359608    -99.796875    -32.366940    -39.406944    -39.585361    -13.081002    3.920546    -7.327737    19.817469    22.830507    8.997683    15.763248    17.816954    0.868301    -1.467178    17.392082    25.018768    3.581780    -3.706910    -4.698403    -9.671394    11.435052    -15.987092    10.138266    -6.100649    43.396015    0.000000    0.000000    0.000000    -5.492281    -25.258614    -9.466273    19.396677    39.329136    -18.592640    6.616019    8.136821    -17.681381    0.000000    0.000000    0.000000    
43.982018    164.097382    -120.032097    -4.129006    -2.084428    28.228294    0.986052    -2.883697    -0.477006    -8.981101    0.875957    -0.098644    10.517195    8.216418    -3.510091    8.310290    -7.791564    -2.703528    10.760487    -2.757888    -12.854913    -23.360203    -26.255733    -34.778942    -16.211668    -33.303539    -99.831223    -32.334312    -39.404060    -39.582623    -12.942284    4.039154    -7.336451    19.697039    22.776480    8.990843    15.735580    17.765446    0.960150    -1.455630    17.331345    24.991306    3.598977    -3.714514    -4.757082    -9.696956    11.424290    -15.971774    10.137349    -6.076801    43.406422    0.000000    0.000000    0.000000    -5.466024    -25.233438    -9.559618    19.331587    39.298016    -18.570715    6.523252    8.117626    -17.661772    0.000000    0.000000    0.000000    
43.946751    164.106720    -120.048668    -4.129673    -2.083092    28.264904    0.991150    -2.891587    -0.493917    -8.976174    0.857664    -0.105701    10.503409    8.195292    -3.510304    8.320217    -7.770986    -2.704125    10.754869    -2.760734    -12.863993    -23.329786    -26.226961    -34.759907    -16.075350    -33.318707    -99.820221    -32.238003    -39.372124    -39.351017    -12.942865    4.033392    -7.345097    19.748835    22.810253    8.955662    15.710627    17.740103    0.981994    -1.399757    17.315374    24.969776    3.610049    -3.736673    -4.811197    -9.710316    11.425118    -15.959806    10.114738    -6.066393    43.417286    0.000000    0.000000    0.000000    -5.444808    -25.206781    -9.638071    19.276052    39.239101    -18.582748    6.437141    8.119040    -17.613810    0.000000    0.000000    0.000000    
43.905251    164.115219    -120.066277    -4.136763    -2.085937    28.302195    0.996698    -2.891985    -0.509238    -8.963438    0.833899    -0.113032    10.499597    8.173872    -3.506891    8.320431    -7.755156    -2.703394    10.755204    -2.755482    -12.868127    -23.332531    -26.238520    -34.750320    -16.269102    -33.265320    -99.907692    -32.302109    -39.465786    -39.539330    -12.935672    4.057905    -7.374729    19.786757    22.843969    8.948232    15.674898    17.717571    0.999073    -1.354256    17.300978    24.925867    3.627464    -3.760866    -4.843008    -9.717411    11.433667    -15.975494    10.104499    -6.046691    43.425209    0.000000    0.000000    0.000000    -5.413104    -25.185278    -9.703531    19.239855    39.182400    -18.637634    6.349057    8.119211    -17.587524    0.000000    0.000000    0.000000    
43.871750    164.123459    -120.084724    -4.140079    -2.093608    28.341856    1.010797    -2.890174    -0.527391    -8.964746    0.812233    -0.120834    10.508540    8.163651    -3.499405    8.312249    -7.756681    -2.698900    10.753241    -2.749985    -12.882345    -23.326710    -26.307112    -34.735371    -16.211323    -33.178085    -99.810638    -32.468300    -39.216679    -39.677589    -12.919710    4.061064    -7.387883    19.817818    22.836405    8.929121    15.689658    17.695869    0.972652    -1.308576    17.292053    24.941422    3.637860    -3.825104    -4.889059    -9.717844    11.446531    -15.952745    10.047290    -5.969923    43.431969    0.000000    0.000000    0.000000    -5.390058    -25.147652    -9.741136    19.224983    39.106850    -18.706789    6.259538    8.112936    -17.531219    0.000000    0.000000    0.000000    
